<svg width="278" height="200" viewBox="0 0 278 200" fill="none" xmlns="http://www.w3.org/2000/svg">
    <g filter="url(#filter0_f_36_50)">
        <path d="M254.694 48.9883C256.694 49.8617 259.018 48.9582 259.887 46.9701C260.757 44.9818 259.841 42.6615 257.841 41.7876L256.268 45.3878C257.841 41.7876 257.841 41.7876 257.841 41.7876L257.818 41.7775L257.762 41.7532L257.553 41.6631C257.37 41.585 257.103 41.4713 256.755 41.3253C256.057 41.0331 255.035 40.6112 253.717 40.0846C251.081 39.0317 247.26 37.5596 242.49 35.8698C232.955 32.4922 219.6 28.2351 204.318 24.7196C173.938 17.7309 135.178 13.4882 103.73 25.7064C72.09 37.9994 58.509 60.2758 52.9571 79.4611C50.1978 88.9963 49.4221 97.7422 49.3327 104.102C49.2879 107.287 49.415 109.889 49.5558 111.712C49.6262 112.624 49.7001 113.343 49.758 113.843C49.7869 114.093 49.8118 114.289 49.8303 114.428L49.8528 114.592L49.8599 114.641L49.8622 114.657C49.8622 114.657 49.8636 114.666 51.0409 114.497L49.8638 114.668C49.909 114.969 49.9874 115.258 50.0948 115.53C44.2996 121.877 38.7251 128.293 33.5585 134.432C24.1653 145.592 16.0281 155.949 10.2394 163.515C7.34428 167.299 5.03461 170.387 3.44683 172.533C2.6529 173.605 2.03932 174.442 1.62315 175.012L1.14904 175.664L1.02699 175.833L0.987066 175.888C0.987066 175.888 0.983732 175.892 4.19355 178.194L0.987066 175.888C-0.28168 177.649 0.123546 180.112 1.89628 181.383C3.66902 182.654 6.13462 182.257 7.40337 180.496L7.43989 180.445L7.55502 180.286L8.01472 179.654C8.42104 179.097 9.02417 178.275 9.80709 177.217C11.373 175.101 13.6576 172.046 16.5248 168.299C22.2608 160.802 30.3204 150.544 39.616 139.5C58.3139 117.284 81.648 92.3302 101.022 79.9615C120.365 67.613 140.122 62.3486 155.076 60.1794C162.546 59.0957 168.792 58.7883 173.15 58.7503C175.328 58.7313 177.031 58.7796 178.176 58.8315C178.749 58.8574 179.182 58.8842 179.464 58.9038L179.774 58.9269L179.842 58.9326L179.852 58.9335C182.023 59.132 183.938 57.5417 184.13 55.3801C184.323 53.2175 182.718 51.3019 180.547 51.1016L180.227 54.6905C180.547 51.1016 180.547 51.1016 180.547 51.1016L180.528 51.1L180.495 51.097L180.383 51.0877C180.288 51.08 180.154 51.0697 179.982 51.0577C179.638 51.0338 179.142 51.0033 178.503 50.9744C177.226 50.9166 175.38 50.8651 173.049 50.8854C168.39 50.9261 161.783 51.2538 153.908 52.3961C138.172 54.6788 117.272 60.2296 96.7444 73.3342C84.2206 81.3295 70.3843 94.0796 57.2539 107.852C57.2215 106.776 57.2077 105.567 57.2263 104.244C57.3086 98.3953 58.0242 90.3726 60.5432 81.6679C65.548 64.3732 77.6717 44.2843 106.624 33.0356C135.769 21.712 172.554 25.4777 202.571 32.3828C217.488 35.8142 230.544 39.9754 239.871 43.2794C244.532 44.9304 248.255 46.3649 250.804 47.3833C252.079 47.8925 253.06 48.2975 253.718 48.5733C254.047 48.7112 254.296 48.8168 254.459 48.8869L254.641 48.9652L254.684 48.9837L254.694 48.9883Z" fill="white"/>
        <path d="M244.935 57.7759C246.59 59.1959 246.782 61.6793 245.363 63.3227L242.366 60.7516C245.363 63.3227 245.363 63.3227 245.363 63.3227L245.35 63.3381L245.315 63.3779L245.184 63.5291L244.677 64.1087C244.232 64.6144 243.579 65.3539 242.734 66.2966C241.045 68.182 238.591 70.8817 235.52 74.1527C229.383 80.6915 220.768 89.529 210.865 98.7146C200.969 107.892 189.736 117.465 178.364 125.448C167.045 133.393 155.336 139.942 144.511 142.822C123.174 148.498 105.856 144.732 93.8693 139.492C87.8948 136.881 83.2538 133.909 80.089 131.574C78.5051 130.406 77.2858 129.393 76.4488 128.658C76.0301 128.291 75.7066 127.993 75.4804 127.779C75.3673 127.672 75.2784 127.586 75.2141 127.524L75.1361 127.447L75.111 127.422L75.1019 127.412C75.1003 127.411 75.0951 127.406 77.9007 124.651L75.0951 127.406C73.5617 125.856 73.5747 123.366 75.1242 121.844C76.6716 120.325 79.1661 120.346 80.7001 121.889L80.7327 121.921L80.9006 122.082C81.0593 122.232 81.3109 122.465 81.653 122.765C82.3377 123.366 83.3829 124.236 84.7705 125.26C87.5488 127.31 91.6789 129.959 97.0167 132.292C107.654 136.942 123.125 140.362 142.446 135.222C151.949 132.694 162.766 126.757 173.8 119.012C184.781 111.304 195.729 101.986 205.473 92.9478C215.209 83.9177 223.693 75.2153 229.744 68.7683C232.768 65.5463 235.181 62.8916 236.835 61.0457C237.662 60.1228 238.299 59.4025 238.728 58.9148L239.212 58.3616L239.332 58.2231L239.368 58.182C240.786 56.5385 243.28 56.3559 244.935 57.7759Z" fill="white"/>
        <path d="M168.756 111.217C171.83 109.299 172.752 105.256 170.815 102.186C168.878 99.1154 164.816 98.1807 161.742 100.098C146.669 109.5 136.912 113.6 129.162 114.538C121.841 115.424 115.563 113.571 107.057 108.841C103.879 107.074 99.8756 108.202 98.1145 111.361C96.3535 114.521 97.5021 118.514 100.68 120.281C110.439 125.708 119.615 128.905 130.801 127.551C141.557 126.249 153.359 120.82 168.756 111.217Z" fill="white"/>
    </g>
    <defs>
        <filter id="filter0_f_36_50" x="-16.7517" y="0.959671" width="293.968" height="198.167" filterUnits="userSpaceOnUse" color-interpolation-filters="sRGB">
            <feFlood flood-opacity="0" result="BackgroundImageFix"/>
            <feBlend mode="normal" in="SourceGraphic" in2="BackgroundImageFix" result="shape"/>
            <feGaussianBlur stdDeviation="8.5" result="effect1_foregroundBlur_36_50"/>
        </filter>
    </defs>
</svg>
