<svg width="54" height="74" viewBox="0 0 54 74" fill="none" xmlns="http://www.w3.org/2000/svg">
    <path d="M27 3C27 3 2 26.4857 2 42.6792C2 58.8726 13.1929 72 27 72M27 3V26M27 3C27 3 31.8861 7.59017 37.3381 14.1111M27 72C40.8071 72 52 58.8726 52 42.6792C52 41.9766 51.9529 41.2602 51.8629 40.5327C51.7663 39.7522 51.6203 38.9589 51.4298 38.1557M27 72V69.125V66.25M27 26V40.375V46.125M27 26L37.3381 14.1111M37.3381 14.1111C39.2893 16.4449 41.313 19.0259 43.2111 21.7323C43.9591 22.7988 44.6876 23.8848 45.3845 24.9829M27 46.125V54.75V66.25M27 46.125L45.3845 24.9829M45.3845 24.9829C46.4709 26.6947 47.4805 28.4357 48.3673 30.1776C49.7378 32.8695 50.8151 35.5637 51.4298 38.1557M27 66.25L51.4298 38.1557" stroke="white" stroke-width="4"/>
</svg>

